<svg width="24" height="24" viewBox="0 0 24 24" fill="none" xmlns="http://www.w3.org/2000/svg">
<path d="M10.9856 17.6944C11.0905 17.7989 11.1737 17.9231 11.2305 18.0598C11.2873 18.1966 11.3165 18.3432 11.3165 18.4913C11.3165 18.6393 11.2873 18.7859 11.2305 18.9227C11.1737 19.0594 11.0905 19.1836 10.9856 19.2881L10.5056 19.7681C9.9961 20.2796 9.39023 20.6849 8.72307 20.9607C8.05591 21.2365 7.34068 21.3773 6.61876 21.375C5.53157 21.3754 4.46871 21.0532 3.56463 20.4494C2.66056 19.8455 1.9559 18.9871 1.5398 17.9827C1.1237 16.9783 1.01487 15.873 1.22706 14.8068C1.43926 13.7405 1.96295 12.7611 2.73188 11.9925L5.9897 8.73469C6.68264 8.04186 7.54816 7.54682 8.49668 7.30084C9.44519 7.05485 10.4422 7.06686 11.3845 7.33561C12.3268 7.60437 13.1802 8.1201 13.8563 8.82943C14.5323 9.53875 15.0065 10.4159 15.2297 11.37C15.2667 11.5151 15.2743 11.6661 15.2522 11.8141C15.23 11.9622 15.1786 12.1043 15.1008 12.2323C15.023 12.3602 14.9205 12.4713 14.7992 12.5591C14.678 12.6469 14.5404 12.7096 14.3946 12.7435C14.2488 12.7775 14.0977 12.782 13.9501 12.7567C13.8025 12.7315 13.6615 12.6771 13.5352 12.5967C13.4089 12.5163 13.3 12.4115 13.2147 12.2884C13.1295 12.1653 13.0697 12.0265 13.0388 11.88C12.9063 11.3168 12.6258 10.7992 12.2263 10.3806C11.8268 9.96213 11.3228 9.65791 10.7663 9.49944C10.2098 9.34097 9.62116 9.334 9.0611 9.47925C8.50104 9.6245 7.98994 9.91669 7.58063 10.3256L4.32282 13.5834C3.86871 14.0372 3.55935 14.6154 3.43387 15.245C3.30839 15.8746 3.37243 16.5272 3.61789 17.1204C3.86335 17.7136 4.2792 18.2206 4.81286 18.5774C5.34651 18.9343 5.97399 19.1248 6.61595 19.125C7.04249 19.1263 7.46505 19.0429 7.85915 18.8797C8.25325 18.7165 8.61107 18.4768 8.91188 18.1744L9.39095 17.6944C9.49548 17.5894 9.61973 17.506 9.75656 17.4492C9.8934 17.3923 10.0401 17.363 10.1883 17.363C10.3365 17.363 10.4832 17.3923 10.62 17.4492C10.7569 17.506 10.8811 17.5894 10.9856 17.6944ZM21.2653 4.23469C20.2342 3.20393 18.8359 2.62488 17.378 2.62488C15.92 2.62488 14.5217 3.20393 13.4906 4.23469L13.0116 4.71376C12.8002 4.9251 12.6815 5.21175 12.6815 5.51063C12.6815 5.80952 12.8002 6.09616 13.0116 6.30751C13.2229 6.51885 13.5096 6.63758 13.8084 6.63758C14.1073 6.63758 14.394 6.51885 14.6053 6.30751L15.0853 5.82751C15.6945 5.21834 16.5207 4.87611 17.3822 4.87611C18.2437 4.87611 19.0699 5.21834 19.6791 5.82751C20.2882 6.43668 20.6305 7.26289 20.6305 8.12438C20.6305 8.98588 20.2882 9.81209 19.6791 10.4213L16.4156 13.6744C16.1148 13.9768 15.757 14.2165 15.3629 14.3797C14.9688 14.5429 14.5462 14.6263 14.1197 14.625C13.388 14.6245 12.6779 14.3768 12.1046 13.9221C11.5313 13.4674 11.1284 12.8324 10.9613 12.12C10.8936 11.8293 10.7133 11.5775 10.46 11.4197C10.2066 11.262 9.90098 11.2114 9.61032 11.2791C9.31966 11.3467 9.06777 11.527 8.91006 11.7804C8.75236 12.0337 8.70175 12.3393 8.76938 12.63C9.05167 13.8365 9.73323 14.9122 10.7035 15.6827C11.6738 16.4532 12.876 16.8734 14.115 16.875H14.1197C14.842 16.877 15.5575 16.7357 16.2248 16.4594C16.8921 16.1831 17.498 15.7773 18.0075 15.2653L21.2653 12.0075C21.7758 11.4972 22.1807 10.8913 22.4569 10.2245C22.7332 9.55762 22.8754 8.84289 22.8754 8.1211C22.8754 7.39931 22.7332 6.68458 22.4569 6.01775C22.1807 5.35091 21.7758 4.74503 21.2653 4.23469Z" fill="black"/>
</svg>
