<svg width="22" height="19" viewBox="0 0 22 19" fill="none" xmlns="http://www.w3.org/2000/svg">
<path d="M3 1.5L8.87868 7.37868M19 17.5L13.1213 11.6213M8.87868 7.37868C8.33579 7.92157 8 8.67157 8 9.5C8 11.1569 9.34315 12.5 11 12.5C11.8284 12.5 12.5784 12.1642 13.1213 11.6213M8.87868 7.37868L13.1213 11.6213M5.76821 4.26821C3.72843 5.59899 1.96378 7.52601 1 9.49978C2.74646 13.0764 7.12201 16.5 10.9998 16.5C12.7376 16.5 14.5753 15.8124 16.2317 14.7317M8.76138 2.84717C9.51144 2.62316 10.2649 2.5 11.0005 2.5C14.8782 2.5 19.2531 5.92398 21 9.5002C20.448 10.6302 19.6336 11.7449 18.6554 12.7412" stroke="#121212" stroke-width="2" stroke-linecap="round" stroke-linejoin="round"/>
</svg>
